<svg width="155" height="45" viewBox="0 0 155 45" fill="none" xmlns="http://www.w3.org/2000/svg">
<path d="M30.125 0.952563V9.22648C30.125 11.911 27.9111 14.0838 25.1759 14.0838H25.1037C23.7321 14.0759 22.4968 14.0838 22.4968 14.0838C22.2642 14.0838 22.0075 14.0601 21.7829 14.0838C20.2428 14.2412 18.9033 14.9261 17.7803 16.1463C17.7482 16.1778 17.7161 16.2172 17.6921 16.2487C16.7856 17.3981 16.2883 18.8859 16.2883 20.4919V20.5706C16.2883 21.6019 16.5049 22.586 16.8979 23.4677C17.291 24.3494 17.0905 25.3728 16.3365 25.9869C15.5985 26.593 14.7242 27.3016 14.1386 27.766C12.4301 25.8609 11.4275 23.3732 11.4275 20.6572V20.5785C11.4275 14.6663 16.2482 9.73819 22.7936 9.73819C23.2027 9.73819 24.5342 9.73819 25.1598 9.73819V0.0629794C24.6304 0.0236173 24.093 0 23.5556 0C11.0745 0 0.959717 9.92712 0.959717 22.1766C0.959717 32.1825 7.71361 40.6374 16.9862 43.3928V35.1819C16.9862 32.4737 19.2241 30.2773 21.9834 30.2773H22.0075C23.3791 30.2852 24.6144 30.2773 24.6144 30.2773C24.847 30.2773 25.1037 30.301 25.3283 30.2773C26.8684 30.1199 28.2079 29.435 29.3309 28.2148C29.363 28.1833 29.3951 28.1439 29.4191 28.1124C30.3255 26.963 30.8228 25.4752 30.8228 23.8692V23.7905C30.8228 22.9875 30.4779 21.9089 30.133 21.043C29.748 20.0747 30.0448 18.9647 30.8549 18.3034C31.5528 17.7287 32.2667 17.1619 32.9725 16.6029C34.6811 18.5081 35.6837 20.9957 35.6837 23.7117V23.7905C35.6837 29.7026 30.8629 34.6308 24.3176 34.6308C23.9085 34.6308 22.577 34.6308 21.9513 34.6308V44.2902C22.4807 44.3296 23.0182 44.3532 23.5556 44.3532C36.0367 44.3532 46.1515 34.4261 46.1515 22.1766C46.1515 12.1708 39.3976 3.71578 30.125 0.952563Z" fill="#1D8AED"/>
<path d="M141.797 19.6497V37.1501C144.668 37.1501 147.002 34.8592 147.002 32.0409V14.5405C144.131 14.5405 141.797 16.8313 141.797 19.6497Z" fill="white"/>
<path d="M132.428 12.3283H149.754C152.65 12.3283 155 10.0216 155 7.17969H137.674C134.778 7.17969 132.428 9.48631 132.428 12.3283Z" fill="white"/>
<path d="M70.9454 7.24976C70.3599 7.70636 69.5096 8.39913 68.7636 9.01318C67.8893 9.72957 67.6326 10.9262 68.0738 11.9575C68.4508 12.8549 68.6594 13.8547 68.6594 14.9018V14.9883C68.6594 16.6967 68.13 18.279 67.1674 19.5071C67.1514 19.5229 67.1353 19.5386 67.1273 19.5544C65.9161 20.8927 64.4723 21.6405 62.8119 21.8059C62.5712 21.8295 62.2985 21.8059 62.0499 21.8059C62.0499 21.8059 60.7344 21.8137 59.2745 21.8059H59.2504C56.3066 21.8059 53.9243 24.144 53.9243 27.0332V37.1571C56.8441 37.1571 59.2183 34.8347 59.2183 31.9613V26.4506C59.8841 26.4506 61.3039 26.4506 61.737 26.4506C68.7075 26.4506 73.8411 21.1997 73.8411 14.9018V14.8152C73.825 11.926 72.7582 9.27297 70.9454 7.24976Z" fill="white"/>
<path d="M113.763 7.24182V32.8823C113.763 35.2362 111.806 37.1413 109.407 37.1413H108.605V11.5165C108.605 9.16269 110.546 7.24182 112.945 7.24182H113.763Z" fill="white"/>
<path d="M75.5816 22.2557C75.4853 28.8056 80.0494 34.6942 86.3461 36.6387C86.9156 36.8118 87.4931 36.9535 88.0706 37.0638C88.0947 37.0638 88.1027 37.0559 88.1027 37.0401L88.1268 34.0959V34.0014C88.1188 32.9858 87.5493 32.1041 86.7151 31.616C86.6188 31.5609 86.5065 31.5058 86.3782 31.4507C84.036 30.4037 82.2793 28.5301 81.2686 26.1998C79.151 21.311 81.4692 15.328 86.3782 13.1395C86.4985 13.0844 86.6108 13.0293 86.7151 12.9741C87.5493 12.4861 88.1108 11.6043 88.1268 10.5888V10.4943L88.1027 7.55005C88.1027 7.54217 88.0947 7.52643 88.0706 7.52643C87.4931 7.63664 86.9156 7.77835 86.3461 7.95154C80.0414 9.88816 75.4933 15.7846 75.5816 22.3345V22.2557Z" fill="white"/>
<path d="M105.942 22.2554C106.038 28.8052 101.474 34.6938 95.1772 36.6383C94.6077 36.8115 94.0302 36.9532 93.4526 37.0634C93.4286 37.0634 93.4205 37.0555 93.4205 37.0398L93.3965 34.0955V34.001C93.4045 32.9855 93.974 32.1038 94.8082 31.6157C94.9045 31.5606 95.0168 31.5055 95.1451 31.4504C97.4873 30.4033 99.244 28.5297 100.255 26.1994C102.372 21.3107 100.054 15.3276 95.1451 13.1391C95.0248 13.084 94.9125 13.0289 94.8082 12.9738C93.974 12.4857 93.4125 11.604 93.3965 10.5884V10.494L93.4205 7.54968C93.4205 7.54181 93.4286 7.52606 93.4526 7.52606C94.0302 7.63628 94.6077 7.77798 95.1772 7.95117C101.482 9.88779 106.03 15.7842 105.942 22.3341V22.2554Z" fill="white"/>
<path d="M117.276 23.3804C116.843 22.6403 116.811 21.7429 117.164 20.9714L123.926 9.66659C124.608 8.19445 126.108 7.24976 127.76 7.24976H130.728L130.407 7.95827L122.394 22.2152L132.918 37.1492H129.228C127.712 37.1492 126.316 36.3462 125.562 35.0552L117.276 23.3804Z" fill="white"/>
</svg>
