<svg width="41" height="40" viewBox="0 0 41 40" fill="none" xmlns="http://www.w3.org/2000/svg">
<path d="M26.1207 0.853123V8.26331C26.1207 10.6676 24.1379 12.6135 21.6882 12.6135H21.6235C20.3951 12.6065 19.2888 12.6135 19.2888 12.6135C19.0804 12.6135 18.8505 12.5924 18.6494 12.6135C17.2701 12.7545 16.0704 13.3679 15.0646 14.4608C15.0359 14.489 15.0072 14.5242 14.9856 14.5524C14.1738 15.5818 13.7284 16.9144 13.7284 18.3527V18.4232C13.7284 19.3469 13.9224 20.2282 14.2744 21.0179C14.6264 21.8075 14.4468 22.7241 13.7715 23.274C13.1106 23.8169 12.3276 24.4515 11.8031 24.8675C10.273 23.1612 9.37499 20.9332 9.37499 18.5008V18.4303C9.37499 13.1353 13.6925 8.7216 19.5546 8.7216C19.9209 8.7216 21.1135 8.7216 21.6738 8.7216V0.0564048C21.1997 0.0211518 20.7184 0 20.237 0C9.0589 0 0 8.89081 0 19.8616C0 28.8229 6.04884 36.3952 14.3534 38.8629V31.5092C14.3534 29.0837 16.3577 27.1166 18.829 27.1166H18.8505C20.079 27.1237 21.1853 27.1166 21.1853 27.1166C21.3936 27.1166 21.6235 27.1378 21.8247 27.1166C23.204 26.9756 24.4037 26.3622 25.4094 25.2694C25.4382 25.2412 25.4669 25.2059 25.4885 25.1777C26.3003 24.1483 26.7457 22.8158 26.7457 21.3774V21.3069C26.7457 20.5878 26.4367 19.6218 26.1278 18.8463C25.783 17.979 26.0488 16.9849 26.7744 16.3927C27.3994 15.878 28.0388 15.3703 28.6709 14.8697C30.2011 16.576 31.0991 18.804 31.0991 21.2364V21.3069C31.0991 26.6019 26.7816 31.0156 20.9195 31.0156C20.5531 31.0156 19.3606 31.0156 18.8003 31.0156V39.6667C19.2744 39.702 19.7557 39.7231 20.237 39.7231C31.4152 39.7231 40.4741 30.8323 40.4741 19.8616C40.4741 10.9002 34.4252 3.32789 26.1207 0.853123Z" fill="#1D8AED"/>
</svg>
