<svg width="236" height="55" viewBox="0 0 236 55" fill="none" xmlns="http://www.w3.org/2000/svg">
<path d="M0.343628 44.0479L3.32836 44.0479C4.29677 44.0479 5.08058 44.8288 5.08058 45.7937L5.08058 45.8191C5.07774 46.3029 5.08058 46.7387 5.08058 46.7387C5.08058 46.8207 5.07206 46.9113 5.08058 46.9905C5.13738 47.5337 5.38445 48.0062 5.82464 48.4024C5.836 48.4137 5.85019 48.425 5.86155 48.4335C6.27618 48.7532 6.81292 48.9286 7.39226 48.9286L7.42066 48.9286C7.79269 48.9286 8.14767 48.8522 8.46574 48.7136C8.78381 48.5749 9.153 48.6457 9.37451 48.9116C9.59318 49.1719 9.84878 49.4803 10.0163 49.6869C9.32907 50.2896 8.43166 50.6432 7.4519 50.6432L7.4235 50.6432C5.29073 50.6432 3.51296 48.9428 3.51296 46.634C3.51296 46.4897 3.51296 46.02 3.51296 45.7993L0.0227188 45.7993C0.00851934 45.9861 -3.56683e-07 46.1756 -3.48396e-07 46.3652C-1.55956e-07 50.7677 3.58111 54.3356 8 54.3356C11.6095 54.3356 14.6596 51.9532 15.6535 48.6825L12.6915 48.6825C11.7146 48.6825 10.9223 47.8931 10.9223 46.9198L10.9223 46.9113C10.9251 46.4274 10.9223 45.9917 10.9223 45.9917C10.9223 45.9097 10.9308 45.8191 10.9223 45.7399C10.8655 45.1967 10.6184 44.7242 10.1782 44.328C10.1668 44.3167 10.1526 44.3054 10.1413 44.2969C9.72666 43.9772 9.18992 43.8018 8.61058 43.8018L8.58218 43.8018C8.29251 43.8018 7.90344 43.9234 7.59105 44.0451C7.24175 44.1809 6.84132 44.0762 6.60277 43.7905C6.39546 43.5443 6.19098 43.2925 5.98935 43.0435C6.67661 42.4408 7.57401 42.0872 8.55378 42.0872L8.58218 42.0872C10.7149 42.0872 12.4927 43.7876 12.4927 46.0964C12.4927 46.2407 12.4927 46.7104 12.4927 46.9311L15.9773 46.9311C15.9915 46.7443 16 46.5548 16 46.3652C16 41.9627 12.4189 38.3948 8 38.3948C4.39049 38.3948 1.34043 40.7772 0.343628 44.0479Z" fill="#1D8AED"/>
<path d="M7.08809 4.65723L13.4012 4.65723C13.4012 3.6443 12.5748 2.82094 11.5581 2.82094L5.245 2.82094C5.245 3.83387 6.07141 4.65723 7.08809 4.65723Z" fill="white"/>
<path d="M4.44714 7.96191L4.44714 1.85044C4.44714 0.829035 3.61505 2.78685e-05 2.58984 2.79133e-05L2.58984 6.11149C2.58984 7.1329 3.42193 7.96191 4.44714 7.96191Z" fill="white"/>
<path d="M2.61316 29.6491C2.77787 29.8557 3.02778 30.1556 3.2493 30.4187C3.50773 30.7271 3.93939 30.8177 4.31142 30.662C4.63517 30.5291 4.99584 30.4555 5.37354 30.4555L5.40478 30.4555C6.02104 30.4555 6.59186 30.6422 7.03488 30.9818C7.04056 30.9874 7.04624 30.9931 7.05192 30.9959C7.53471 31.4231 7.8045 31.9324 7.86414 32.5181C7.87266 32.603 7.86414 32.6992 7.86414 32.7869C7.86414 32.7869 7.86698 33.2509 7.86414 33.7659L7.86414 33.7744C7.86414 34.8127 8.70759 35.6531 9.74983 35.6531L13.4019 35.6531C13.4019 34.6232 12.5642 33.7857 11.5276 33.7857L9.53968 33.7857C9.53968 33.5508 9.53968 33.05 9.53968 32.8973C9.53968 30.4385 7.64546 28.6277 5.37354 28.6277L5.3423 28.6277C4.30006 28.6334 3.34301 29.0097 2.61316 29.6491Z" fill="white"/>
<path d="M2.61218 14.5459L11.8617 14.5459C12.7109 14.5459 13.3981 15.2363 13.3981 16.0823L13.3981 16.3652L4.15425 16.3652C3.30512 16.3652 2.61218 15.6805 2.61218 14.8345L2.61218 14.5459V14.5459Z" fill="white"/>
<path d="M8.0283 28.0138C10.3911 28.0477 12.5153 26.4378 13.2168 24.2167C13.2793 24.0158 13.3304 23.8121 13.3702 23.6084C13.3702 23.5999 13.3673 23.5971 13.3616 23.5971L12.2995 23.5886L12.2654 23.5886C11.8991 23.5914 11.581 23.7923 11.4049 24.0866C11.3851 24.1205 11.3652 24.1601 11.3453 24.2054C10.9676 25.0316 10.2917 25.6512 9.45109 26.0077C7.68751 26.7547 5.52919 25.937 4.73969 24.2054C4.71981 24.163 4.69993 24.1234 4.68006 24.0866C4.50398 23.7923 4.18591 23.5943 3.81957 23.5886L3.78549 23.5886L2.72336 23.5971C2.72052 23.5971 2.71484 23.5999 2.71484 23.6084C2.7546 23.8121 2.80572 24.0158 2.8682 24.2167C3.56681 26.4406 5.6939 28.0449 8.0567 28.0138L8.0283 28.0138Z" fill="white"/>
<path d="M8.02842 17.3046C10.3912 17.2706 12.5155 18.8805 13.2169 21.1016C13.2794 21.3025 13.3305 21.5062 13.3703 21.7099C13.3703 21.7184 13.3674 21.7212 13.3618 21.7212L12.2996 21.7297L12.2656 21.7297C11.8992 21.7269 11.5811 21.526 11.4051 21.2318C11.3852 21.1978 11.3653 21.1582 11.3454 21.1129C10.9677 20.2868 10.2918 19.6671 9.45121 19.3106C7.68763 18.5637 5.52931 19.3814 4.73982 21.1129C4.71994 21.1554 4.70006 21.195 4.68018 21.2318C4.5041 21.526 4.18603 21.7241 3.81969 21.7297L3.78561 21.7297L2.72349 21.7212C2.72065 21.7212 2.71497 21.7184 2.71497 21.7099C2.75472 21.5062 2.80584 21.3025 2.86832 21.1016C3.56694 18.8777 5.69402 17.2735 8.05682 17.3046L8.02842 17.3046Z" fill="white"/>
<path d="M8.43407 13.3067C8.16712 13.4595 7.84337 13.4708 7.56506 13.3463L3.48696 10.9612C2.9559 10.7207 2.61511 10.1916 2.61511 9.60874L2.61511 8.56187L2.8707 8.67504L8.01376 11.5016L13.4011 7.78945L13.4011 9.09096C13.4011 9.62571 13.1114 10.118 12.6456 10.384L8.43407 13.3067Z" fill="white"/>
<path d="M39.5914 50.96L25 1.04H33.7687L43.7158 37.0933L53.6283 1.10933L62.397 1.04L72.3442 37.0933L82.2566 1.04H91.0253L76.4686 50.96H68.2197L57.9953 15.4613L47.8403 50.96H39.5914Z" fill="white"/>
<path d="M104.034 52C101.33 52 99.0429 51.4916 97.1713 50.4747C95.2998 49.4347 93.8787 48.0596 92.9083 46.3493C91.9609 44.6391 91.4873 42.7556 91.4873 40.6987C91.4873 38.896 91.7876 37.2782 92.3884 35.8453C92.9892 34.3893 93.9134 33.1413 95.1611 32.1013C96.4088 31.0382 98.0263 30.1716 100.013 29.5013C101.515 29.016 103.271 28.5769 105.282 28.184C107.315 27.7911 109.51 27.4329 111.867 27.1093C114.247 26.7627 116.731 26.3929 119.318 26L116.338 27.6987C116.361 25.1102 115.783 23.2036 114.605 21.9787C113.426 20.7538 111.439 20.1413 108.643 20.1413C106.957 20.1413 105.328 20.5342 103.757 21.32C102.185 22.1058 101.088 23.4578 100.464 25.376L92.839 22.984C93.7632 19.8178 95.5193 17.2756 98.1071 15.3573C100.718 13.4391 104.23 12.48 108.643 12.48C111.971 12.48 114.894 13.0231 117.412 14.1093C119.954 15.1956 121.837 16.9751 123.062 19.448C123.732 20.7653 124.136 22.1173 124.275 23.504C124.413 24.8676 124.483 26.3582 124.483 27.976V50.96H117.17V42.848L118.383 44.1653C116.696 46.8693 114.72 48.8569 112.456 50.128C110.215 51.376 107.407 52 104.034 52ZM105.697 45.344C107.592 45.344 109.21 45.0089 110.55 44.3387C111.89 43.6684 112.953 42.848 113.738 41.8773C114.547 40.9067 115.09 39.9938 115.367 39.1387C115.806 38.0756 116.049 36.8622 116.095 35.4987C116.164 34.112 116.199 32.9911 116.199 32.136L118.764 32.8987C116.245 33.2916 114.085 33.6382 112.283 33.9387C110.48 34.2391 108.932 34.528 107.638 34.8053C106.344 35.0596 105.201 35.3484 104.207 35.672C103.237 36.0187 102.416 36.4231 101.746 36.8853C101.076 37.3476 100.556 37.8791 100.187 38.48C99.8401 39.0809 99.6668 39.7858 99.6668 40.5947C99.6668 41.5191 99.8978 42.3396 100.36 43.056C100.822 43.7493 101.492 44.304 102.37 44.72C103.271 45.136 104.38 45.344 105.697 45.344Z" fill="white"/>
<path d="M134.199 50.96V0H142.552V50.96H134.199Z" fill="white"/>
<path d="M153.627 50.96V0H161.98V50.96H153.627Z" fill="white"/>
<path d="M189.379 52C185.59 52 182.263 51.1796 179.398 49.5387C176.532 47.8978 174.291 45.6213 172.674 42.7093C171.079 39.7973 170.282 36.4462 170.282 32.656C170.282 28.5653 171.068 25.0178 172.639 22.0133C174.21 18.9858 176.394 16.64 179.19 14.976C181.985 13.312 185.22 12.48 188.894 12.48C192.776 12.48 196.069 13.3929 198.772 15.2187C201.498 17.0213 203.52 19.5751 204.837 22.88C206.154 26.1849 206.651 30.0791 206.328 34.5627H198.044V31.512C198.021 27.4444 197.305 24.4747 195.895 22.6027C194.486 20.7307 192.268 19.7947 189.241 19.7947C185.821 19.7947 183.279 20.8578 181.616 22.984C179.952 25.0871 179.12 28.1724 179.12 32.24C179.12 36.0302 179.952 38.9653 181.616 41.0453C183.279 43.1253 185.706 44.1653 188.894 44.1653C190.951 44.1653 192.718 43.7147 194.197 42.8133C195.699 41.8889 196.854 40.56 197.663 38.8267L205.912 41.3227C204.479 44.6969 202.261 47.32 199.257 49.192C196.276 51.064 192.984 52 189.379 52ZM176.486 34.5627V28.2533H202.238V34.5627H176.486Z" fill="white"/>
<path d="M236 50.96C233.528 51.4222 231.102 51.6187 228.722 51.5493C226.365 51.5031 224.251 51.0756 222.379 50.2667C220.507 49.4347 219.086 48.1289 218.116 46.3493C217.261 44.7316 216.81 43.0791 216.764 41.392C216.718 39.7049 216.695 37.7982 216.695 35.672V3.12H225.013V35.1867C225.013 36.6889 225.025 38.0062 225.048 39.1387C225.094 40.2711 225.337 41.1956 225.776 41.912C226.607 43.2987 227.936 44.0729 229.761 44.2347C231.587 44.3964 233.666 44.304 236 43.9573V50.96ZM209.902 20.072V13.52H236V20.072H209.902Z" fill="white"/>
</svg>
