<svg width="19" height="20" viewBox="0 0 19 20" fill="none" xmlns="http://www.w3.org/2000/svg">
<path d="M1.54004 2.3877H6.16058C6.97754 2.3877 7.76104 2.7231 8.33872 3.32013C8.9164 3.91715 9.24093 4.72689 9.24093 5.57122V16.7135C9.24093 16.0803 8.99753 15.473 8.56427 15.0252C8.13101 14.5775 7.54339 14.3259 6.93067 14.3259H1.54004V2.3877Z" stroke="#FAFAFA" stroke-width="2" stroke-linecap="round" stroke-linejoin="round"/>
<path d="M16.9421 2.3877H12.3216C11.5046 2.3877 10.7211 2.7231 10.1434 3.32013C9.56575 3.91715 9.24121 4.72689 9.24121 5.57122V16.7135C9.24121 16.0803 9.48461 15.473 9.91787 15.0252C10.3511 14.5775 10.9388 14.3259 11.5515 14.3259H16.9421V2.3877Z" stroke="#FAFAFA" stroke-width="2" stroke-linecap="round" stroke-linejoin="round"/>
</svg>
