<svg width="18" height="19" viewBox="0 0 18 19" fill="none" xmlns="http://www.w3.org/2000/svg">
<path d="M13.3189 10.6742C13.5799 11.1609 14.1861 11.3439 14.6728 11.0829C15.1595 10.8218 15.3424 10.2157 15.0814 9.72896L13.3189 10.6742ZM9.65995 1.73633L10.5412 1.26368C10.3653 0.935769 10.0219 0.732621 9.64985 0.736379C9.27776 0.740137 8.93854 0.950178 8.76933 1.28158L9.65995 1.73633ZM1.68021 17.3645L0.789587 16.9098C0.601369 17.2784 0.659689 17.7249 0.936276 18.0328C1.21286 18.3407 1.65055 18.4464 2.03718 18.2986L1.68021 17.3645ZM9.55124 14.3566L9.93442 13.4329C9.69812 13.3349 9.43324 13.3312 9.19427 13.4225L9.55124 14.3566ZM16.4188 18.2882C16.9289 18.4998 17.514 18.2578 17.7256 17.7477C17.9373 17.2376 17.6953 16.6525 17.1851 16.4408L16.4188 18.2882ZM15.0814 9.72896L10.5412 1.26368L8.77869 2.20897L13.3189 10.6742L15.0814 9.72896ZM8.76933 1.28158L0.789587 16.9098L2.57083 17.8193L10.5506 2.19108L8.76933 1.28158ZM2.03718 18.2986L9.90821 15.2907L9.19427 13.4225L1.32324 16.4304L2.03718 18.2986ZM9.16806 15.2803L16.4188 18.2882L17.1851 16.4408L9.93442 13.4329L9.16806 15.2803Z" fill="#FAFAFA"/>
</svg>
