<svg width="24" height="24" viewBox="0 0 24 24" fill="none" xmlns="http://www.w3.org/2000/svg">
<path fill-rule="evenodd" clip-rule="evenodd" d="M12 3C7.02944 3 3 7.02944 3 12C3 16.9706 7.02944 21 12 21C16.9706 21 21 16.9706 21 12C21 7.02944 16.9706 3 12 3ZM1 12C1 5.92487 5.92487 1 12 1C18.0751 1 23 5.92487 23 12C23 18.0751 18.0751 23 12 23C5.92487 23 1 18.0751 1 12Z" fill="#FAFAFA"/>
<path fill-rule="evenodd" clip-rule="evenodd" d="M12.2581 8.02433C11.7926 7.94448 11.3138 8.03196 10.9066 8.27127C10.4994 8.51059 10.1901 8.8863 10.0333 9.33185C9.85006 9.85284 9.27915 10.1266 8.75816 9.94334C8.23717 9.76007 7.9634 9.18915 8.14667 8.66816C8.46014 7.77705 9.07887 7.02564 9.89327 6.54701C10.7077 6.06838 11.6652 5.89341 12.5962 6.05311C13.5273 6.21281 14.3718 6.69686 14.9801 7.41953C15.5883 8.14206 15.9213 9.05649 15.92 10.0009C15.9196 11.5313 14.7849 12.5419 13.9747 13.0821C13.5942 13.3357 13.2192 13.5307 12.92 13.6695V14C12.92 14.5523 12.4723 15 11.92 15C11.3677 15 10.92 14.5523 10.92 14V13C10.92 12.5699 11.195 12.1881 11.6027 12.0517L11.6014 12.0521C11.6016 12.0521 11.6016 12.0521 11.6027 12.0517L11.6187 12.0461C11.6341 12.0406 11.6593 12.0315 11.6929 12.0186C11.7603 11.993 11.8606 11.9529 11.9826 11.8987C12.2294 11.789 12.5509 11.6275 12.8653 11.418C13.5549 10.9582 13.92 10.4691 13.92 10L13.92 9.99852C13.9207 9.5262 13.7542 9.06887 13.4501 8.70754C13.1459 8.3462 12.7236 8.10417 12.2581 8.02433Z" fill="#FAFAFA"/>
<path fill-rule="evenodd" clip-rule="evenodd" d="M11 17C11 16.4477 11.4477 16 12 16H12.01C12.5623 16 13.01 16.4477 13.01 17C13.01 17.5523 12.5623 18 12.01 18H12C11.4477 18 11 17.5523 11 17Z" fill="#FAFAFA"/>
</svg>
