<svg width="19" height="20" viewBox="0 0 19 20" fill="none" xmlns="http://www.w3.org/2000/svg">
<path fill-rule="evenodd" clip-rule="evenodd" d="M3.86641 7.8448C4.87985 6.79314 6.28394 6.25016 7.71426 6.35637C9.14422 6.46258 10.4592 7.20754 11.3181 8.39821C11.5905 8.77572 11.5161 9.31124 11.1521 9.59372C10.7877 9.8762 10.2716 9.79906 9.99918 9.42118C9.42669 8.62777 8.54981 8.13101 7.59638 8.0602C6.64296 7.98939 5.70714 8.35125 5.03115 9.05261L2.5705 11.6039C1.32202 12.9444 1.33999 15.0749 2.61075 16.3926C3.88151 17.7104 5.93606 17.729 7.21832 16.4448L8.62672 14.9843C8.94836 14.6508 9.46982 14.6508 9.79146 14.9843C10.1131 15.3179 10.1131 15.8586 9.79146 16.1921L8.373 17.6631C6.43416 19.6046 3.35214 19.5771 1.44601 17.6004C-0.460125 15.6238 -0.486719 12.4278 1.3957 10.4069L3.86641 7.8448Z" fill="#FAFAFA"/>
<path fill-rule="evenodd" clip-rule="evenodd" d="M14.6157 11.2563C13.6023 12.3079 12.1982 12.8509 10.7679 12.7447C9.33793 12.6385 8.02297 11.8935 7.16406 10.7029C6.89165 10.3254 6.96604 9.78983 7.33009 9.50735C7.6945 9.22487 8.21056 9.30201 8.48297 9.6799C9.05546 10.4733 9.93234 10.9701 10.8858 11.0409C11.8392 11.1117 12.775 10.7498 13.451 10.0485L15.9116 7.49719C17.1601 6.15671 17.1422 4.02618 15.8714 2.70844C14.6006 1.39069 12.5461 1.37205 11.2638 2.65626L9.85543 4.11674C9.53379 4.45028 9.01233 4.45028 8.69069 4.11674C8.36905 3.7832 8.36905 3.24247 8.69069 2.90893L10.1092 1.43802C12.048 -0.503572 15.13 -0.475994 17.0361 1.50063C18.9423 3.47725 18.9689 6.67323 17.0865 8.6942L14.6157 11.2563Z" fill="#FAFAFA"/>
</svg>
