<svg width="16" height="16" viewBox="0 0 16 16" fill="none" xmlns="http://www.w3.org/2000/svg">
<path fill-rule="evenodd" clip-rule="evenodd" d="M7.99999 1.99984C4.68628 1.99984 1.99999 4.68613 1.99999 7.99984C1.99999 11.3135 4.68628 13.9998 7.99999 13.9998C11.3137 13.9998 14 11.3135 14 7.99984C14 4.68613 11.3137 1.99984 7.99999 1.99984ZM0.666656 7.99984C0.666656 3.94975 3.9499 0.666504 7.99999 0.666504C12.0501 0.666504 15.3333 3.94975 15.3333 7.99984C15.3333 12.0499 12.0501 15.3332 7.99999 15.3332C3.9499 15.3332 0.666656 12.0499 0.666656 7.99984Z" fill="#FAFAFA"/>
<path fill-rule="evenodd" clip-rule="evenodd" d="M8.00001 4.66683C6.15906 4.66683 4.66668 6.15921 4.66668 8.00016C4.66668 9.84111 6.15906 11.3335 8.00001 11.3335C9.84096 11.3335 11.3333 9.84111 11.3333 8.00016C11.3333 6.15921 9.84096 4.66683 8.00001 4.66683ZM3.33334 8.00016C3.33334 5.42283 5.42268 3.3335 8.00001 3.3335C10.5773 3.3335 12.6667 5.42283 12.6667 8.00016C12.6667 10.5775 10.5773 12.6668 8.00001 12.6668C5.42268 12.6668 3.33334 10.5775 3.33334 8.00016Z" fill="#FAFAFA"/>
<path fill-rule="evenodd" clip-rule="evenodd" d="M8 7.33333C7.63181 7.33333 7.33333 7.63181 7.33333 8C7.33333 8.36819 7.63181 8.66667 8 8.66667C8.36819 8.66667 8.66667 8.36819 8.66667 8C8.66667 7.63181 8.36819 7.33333 8 7.33333ZM6 8C6 6.89543 6.89543 6 8 6C9.10457 6 10 6.89543 10 8C10 9.10457 9.10457 10 8 10C6.89543 10 6 9.10457 6 8Z" fill="#FAFAFA"/>
</svg>
