<svg width="20" height="21" viewBox="0 0 20 21" fill="none" xmlns="http://www.w3.org/2000/svg">
<mask id="mask0_3016_925" style="mask-type:alpha" maskUnits="userSpaceOnUse" x="8" y="0" width="12" height="13">
<path fill-rule="evenodd" clip-rule="evenodd" d="M8.00003 0H19.0624V12.4416H8.00003V0Z" fill="white"/>
</mask>
<g mask="url(#mask0_3016_925)">
<path fill-rule="evenodd" clip-rule="evenodd" d="M9.83762 1.64143C11.9737 -0.574633 15.3693 -0.542738 17.4693 1.71245C19.5694 3.96807 19.5987 7.61516 17.5248 9.92181L15.4441 12.1562C15.0897 12.5368 14.5152 12.5368 14.1609 12.1562C13.8065 11.776 13.8065 11.1585 14.1609 10.7779L16.2304 8.55543C17.6059 7.02617 17.5861 4.59449 16.1861 3.09074C14.7861 1.58743 12.5225 1.56616 11.1078 3.03376L9.58383 4.66083C9.24728 5.02018 8.69969 5.0878 8.33306 4.76375C7.91178 4.39121 7.8904 3.72056 8.26773 3.31784L9.83762 1.64143Z" fill="#FAFAFA"/>
</g>
<mask id="mask1_3016_925" style="mask-type:alpha" maskUnits="userSpaceOnUse" x="0" y="8" width="12" height="13">
<path fill-rule="evenodd" clip-rule="evenodd" d="M11.0624 20.4417L8.58307e-06 20.4416L9.67075e-06 8.00006L11.0624 8.00006L11.0624 20.4417Z" fill="white"/>
</mask>
<g mask="url(#mask1_3016_925)">
<path fill-rule="evenodd" clip-rule="evenodd" d="M9.22482 18.8002C7.08873 21.0163 3.69316 20.9844 1.59311 18.7292C-0.506951 16.4736 -0.53625 12.8265 1.53767 10.5198L3.61833 8.28549C3.9727 7.90487 4.5472 7.90487 4.90157 8.28549C5.25593 8.66568 5.25593 9.28316 4.90157 9.66378L2.832 11.8862C1.45651 13.4155 1.4763 15.8472 2.87634 17.3509C4.27638 18.8542 6.53996 18.8755 7.95465 17.4079L9.47861 15.7808C9.81516 15.4215 10.3627 15.3539 10.7294 15.6779C11.1507 16.0504 11.172 16.7211 10.7947 17.1238L9.22482 18.8002Z" fill="#FAFAFA"/>
</g>
</svg>
