<svg width="16" height="16" viewBox="0 0 16 16" fill="none" xmlns="http://www.w3.org/2000/svg">
<path d="M14.6666 7.27778V9.38889H11.6666C11.085 9.38889 10.611 8.91492 10.611 8.33333C10.611 7.75174 11.085 7.27778 11.6666 7.27778H14.6666Z" stroke="#FAFAFA"/>
<path d="M13.9999 10.3333V12.7407C13.9999 13.0747 13.8516 13.395 13.5877 13.6311C13.3238 13.8673 12.9658 14 12.5925 14H2.74066C2.36739 14 2.00941 13.8673 1.74547 13.6311C1.48153 13.395 1.33325 13.0747 1.33325 12.7407V3.92589C1.33325 3.59191 1.48153 3.27161 1.74547 3.03545C2.00941 2.7993 2.36739 2.66663 2.74066 2.66663H13.9999" stroke="#FAFAFA" stroke-width="2" stroke-linecap="round" stroke-linejoin="round"/>
<path d="M11.301 8.33331C11.301 8.76218 11.6499 9.11109 12.0788 9.11109C12.5077 9.11109 12.8566 8.76218 12.8566 8.33331C12.8566 7.90445 12.5077 7.55554 12.0788 7.55554C11.6499 7.55554 11.301 7.90445 11.301 8.33331Z" fill="#FAFAFA"/>
</svg>
